<?xml version="1.0" encoding="iso-8859-1"?>
<!-- Generator: Adobe Illustrator 21.0.0, SVG Export Plug-In . SVG Version: 6.00 Build 0)  -->
<svg version="1.1" id="Layer_1" xmlns="http://www.w3.org/2000/svg" xmlns:xlink="http://www.w3.org/1999/xlink" x="0px" y="0px"
	 viewBox="0 0 24 24" enable-background="new 0 0 24 24" xml:space="preserve">
<g id="XMLID_1673_">
	<path id="XMLID_1585_" fill="none" stroke="#303C42" stroke-linecap="round" stroke-linejoin="round" stroke-miterlimit="10" d="
		M22,21.5h-20c-0.8284272,0-1.5-0.6715736-1.5-1.5V7c0-0.8284273,0.6715729-1.5,1.5-1.5h20c0.8284283,0,1.5,0.6715727,1.5,1.5v13
		C23.5,20.8284264,22.8284283,21.5,22,21.5z"/>
	<path id="XMLID_1584_" fill="none" stroke="#303C42" stroke-linecap="round" stroke-linejoin="round" stroke-miterlimit="10" d="
		M16.5,5.5h-9V4c0-0.8284271,0.6715732-1.5,1.5000005-1.5h6C15.8284273,2.5,16.5,3.1715729,16.5,4V5.5z"/>
	<path id="XMLID_1594_" fill="none" stroke="#303C42" stroke-linecap="round" stroke-linejoin="round" stroke-miterlimit="10" d="
		M23.5,9.5c-2.2091389,0-4-1.7908611-4-4"/>
	<path id="XMLID_1593_" fill="none" stroke="#303C42" stroke-linecap="round" stroke-linejoin="round" stroke-miterlimit="10" d="
		M4.4999995,5.5c0,2.2091389-1.7908611,4-4,4"/>
	<path id="XMLID_1592_" fill="none" stroke="#303C42" stroke-linecap="round" stroke-linejoin="round" stroke-miterlimit="10" d="
		M0.4999994,17.5c2.2091391,0,4,1.7908611,4,4"/>
	<path id="XMLID_1591_" fill="none" stroke="#303C42" stroke-linecap="round" stroke-linejoin="round" stroke-miterlimit="10" d="
		M19.5,21.5c0-2.2091389,1.7908611-4,4-4"/>
	<g id="XMLID_1587_">
		<path id="XMLID_1590_" fill="none" stroke="#303C42" stroke-linecap="round" stroke-linejoin="round" stroke-miterlimit="10" d="
			M13.499999,11.5h-1.750001c-0.6903553,0-1.249999,0.5596437-1.249999,1.249999v0.0000019
			c0,0.6903553,0.5596437,1.249999,1.249999,1.249999h0.5000029c0.6903553,0,1.2499981,0.5596437,1.2499981,1.249999v0.0000019
			c0,0.6903553-0.5596428,1.249999-1.2499981,1.249999H10.499999"/>
		
			<line id="XMLID_1589_" fill="none" stroke="#303C42" stroke-linecap="round" stroke-linejoin="round" stroke-miterlimit="10" x1="11.999999" y1="11.5" x2="11.999999" y2="10.5"/>
		
			<line id="XMLID_1588_" fill="none" stroke="#303C42" stroke-linecap="round" stroke-linejoin="round" stroke-miterlimit="10" x1="11.999999" y1="16.5" x2="11.999999" y2="17.5"/>
	</g>
</g>
<g>
</g>
<g>
</g>
<g>
</g>
<g>
</g>
<g>
</g>
<g>
</g>
<g>
</g>
<g>
</g>
<g>
</g>
<g>
</g>
<g>
</g>
<g>
</g>
<g>
</g>
<g>
</g>
<g>
</g>
</svg>
