<?xml version="1.0" encoding="iso-8859-1"?>
<!-- Generator: Adobe Illustrator 21.0.0, SVG Export Plug-In . SVG Version: 6.00 Build 0)  -->
<svg version="1.1" id="Layer_1" xmlns="http://www.w3.org/2000/svg" xmlns:xlink="http://www.w3.org/1999/xlink" x="0px" y="0px"
	 viewBox="0 0 24 24" enable-background="new 0 0 24 24" xml:space="preserve">
<g>
	
		<circle id="XMLID_1302_" fill="none" stroke="#303C42" stroke-linecap="round" stroke-linejoin="round" stroke-miterlimit="10" cx="8" cy="11" r="3.5"/>
	<path id="XMLID_35_" fill="none" stroke="#303C42" stroke-linecap="round" stroke-linejoin="round" stroke-miterlimit="10" d="
		M8,16.5c-2.3828411,0-4.5506597,0.9030933-5.9359145,1.6498699C1.1056498,18.6665516,0.5,19.6949692,0.5,20.8262138V21.375
		c0,0.6213207,0.4796949,1.125,1.0714285,1.125h12.8571434C15.0203047,22.5,15.5,21.9963207,15.5,21.375v-0.5487862
		c0-1.1312447-0.6056499-2.1596622-1.564085-2.6763439C12.5506592,17.4030933,10.3828411,16.5,8,16.5z"/>
	<path id="XMLID_1303_" fill="none" stroke="#303C42" stroke-linecap="round" stroke-linejoin="round" stroke-miterlimit="10" d="
		M14.5,1.5c-0.5522852,0-1,0.4477153-1,1v9l2-2h7c0.5522842,0,1-0.4477148,1-1v-6c0-0.5522847-0.4477158-1-1-1H14.5z"/>
</g>
<g>
</g>
<g>
</g>
<g>
</g>
<g>
</g>
<g>
</g>
<g>
</g>
<g>
</g>
<g>
</g>
<g>
</g>
<g>
</g>
<g>
</g>
<g>
</g>
<g>
</g>
<g>
</g>
<g>
</g>
</svg>
