<?xml version="1.0" encoding="iso-8859-1"?>
<!-- Generator: Adobe Illustrator 21.0.0, SVG Export Plug-In . SVG Version: 6.00 Build 0)  -->
<svg version="1.1" id="Layer_1" xmlns="http://www.w3.org/2000/svg" xmlns:xlink="http://www.w3.org/1999/xlink" x="0px" y="0px"
	 viewBox="0 0 24 24" enable-background="new 0 0 24 24" xml:space="preserve">
<g id="XMLID_1443_">
	
		<circle id="XMLID_1359_" fill="none" stroke="#303C42" stroke-linecap="round" stroke-linejoin="round" stroke-miterlimit="10" cx="17" cy="3.5" r="3"/>
	<path id="XMLID_1358_" fill="none" stroke="#303C42" stroke-linecap="round" stroke-linejoin="round" stroke-miterlimit="10" d="
		M17,8.5c-2.0651283,0-3.9439049,0.7525778-5.1444597,1.3748913C11.0248966,10.30546,10.5,11.1624737,10.5,12.1051779V12.5625
		c0,0.517767,0.4157352,0.9375,0.9285717,0.9375h11.1428566C23.0842648,13.5,23.5,13.080267,23.5,12.5625v-0.4573221
		c0-0.9427042-0.5248966-1.7997179-1.3555412-2.2302866C20.9439049,9.2525778,19.0651283,8.5,17,8.5z"/>
	<g id="XMLID_1350_">
		<path id="XMLID_1406_" fill="none" stroke="#303C42" stroke-linecap="round" stroke-linejoin="round" stroke-miterlimit="10" d="
			M0.5,13.5l4.0723839,0.814477c0.5204272,0.104085,0.8688903,0.5966024,0.7938333,1.1220016L4.622654,20.6414223
			C4.5522757,21.1340694,4.1303549,21.5,3.6327045,21.5H0.5V13.5z"/>
		<path id="XMLID_1405_" fill="none" stroke="#303C42" stroke-linecap="round" stroke-linejoin="round" stroke-miterlimit="10" d="
			M5.5,15.5c0,0,1.4166665-0.5,3-0.5s2.4891291,1.0919971,4.5,1.5c2.15625,0.4375,3.5,0.9375,3.5,2s-1.625,1.59375-7,0"/>
		<path id="XMLID_1404_" fill="none" stroke="#303C42" stroke-linecap="round" stroke-linejoin="round" stroke-miterlimit="10" d="
			M16.5,19c0,0,3.25-1,4.5-1s2.5,0.5,2.5,1.5c-1.708334,0.75-7.666667,4-10,4s-8.5-3-8.5-3"/>
	</g>
</g>
<g>
</g>
<g>
</g>
<g>
</g>
<g>
</g>
<g>
</g>
<g>
</g>
<g>
</g>
<g>
</g>
<g>
</g>
<g>
</g>
<g>
</g>
<g>
</g>
<g>
</g>
<g>
</g>
<g>
</g>
</svg>
